inDegrees=no
num_controls=7
num_derivatives=13
num_iterations=104
num_multipliers=7
num_parameters=0
num_slacks=7
num_states=26
objective=5.186329
objective_accelerations=0.532945
objective_balance=0.027057
objective_effort=0.216549
objective_height=4.362989
objective_ligament=0.046789
solver_duration=1162.780700
status=Solve_Succeeded
success=true
DataType=double
version=3
OpenSimVersion=4.4-2022-07-23-0e9fedc
endheader
time	/jointset/ground_pelvis/pelvis_tilt/value	/jointset/ground_pelvis/pelvis_tx/value	/jointset/ground_pelvis/pelvis_ty/value	/jointset/hip_l/hip_flexion_l/value	/jointset/hip_l/hip_adduction_l/value	/jointset/hip_l/hip_rotation_l/value	/jointset/back/lumbar_extension/value	/jointset/patellofemoral_l/patellar_flexion_l/value	/jointset/knee_l/knee_flexion_l/value	/jointset/knee_l/knee_adduction_l/value	/jointset/knee_l/knee_rotation_l/value	/jointset/ankle_l/ankle_angle_l/value	/jointset/subtalar_l/subtalar_angle_l/value	/jointset/ground_pelvis/pelvis_tilt/speed	/jointset/ground_pelvis/pelvis_tx/speed	/jointset/ground_pelvis/pelvis_ty/speed	/jointset/hip_l/hip_flexion_l/speed	/jointset/hip_l/hip_adduction_l/speed	/jointset/hip_l/hip_rotation_l/speed	/jointset/back/lumbar_extension/speed	/jointset/patellofemoral_l/patellar_flexion_l/speed	/jointset/knee_l/knee_flexion_l/speed	/jointset/knee_l/knee_adduction_l/speed	/jointset/knee_l/knee_rotation_l/speed	/jointset/ankle_l/ankle_angle_l/speed	/jointset/subtalar_l/subtalar_angle_l/speed	/forceset/tau_hip_flexion_l	/forceset/tau_hip_adduction_l	/forceset/tau_hip_rotation_l	/forceset/tau_knee_flexion_l	/forceset/tau_ankle_angle_l	/forceset/tau_subtalar_angle_l	/forceset/tau_lumbar_extension	lambda_cid13_p0	lambda_cid13_p1	lambda_cid13_p2	lambda_cid13_p3	lambda_cid13_p4	lambda_cid13_p5	lambda_cid14_p0	/jointset/ground_pelvis/pelvis_tilt/accel	/jointset/ground_pelvis/pelvis_tx/accel	/jointset/ground_pelvis/pelvis_ty/accel	/jointset/hip_l/hip_flexion_l/accel	/jointset/hip_l/hip_adduction_l/accel	/jointset/hip_l/hip_rotation_l/accel	/jointset/back/lumbar_extension/accel	/jointset/patellofemoral_l/patellar_flexion_l/accel	/jointset/knee_l/knee_flexion_l/accel	/jointset/knee_l/knee_adduction_l/accel	/jointset/knee_l/knee_rotation_l/accel	/jointset/ankle_l/ankle_angle_l/accel	/jointset/subtalar_l/subtalar_angle_l/accel	gamma_cid13_p0	gamma_cid13_p1	gamma_cid13_p2	gamma_cid13_p3	gamma_cid13_p4	gamma_cid13_p5	gamma_cid14_p0
1.5	-0.2179621561902386	0.05237737226057734	0.7942994566231066	0.8139112919995439	-0.4442857321775517	-0.2291064445281342	-0.2089172476453349	0.7780856248222545	0.778085624822307	-0.1478309034569186	-0.144082003891118	0.236855854309437	0.03418466876886671	0.2910727732134394	0.1090522615438478	0.4062293100853772	-1.677669412102492	0.2515967558891623	-0.6916375708729317	0.3408355985243976	-1.943974414822596	-1.943974414822619	-0.07985707254898622	0.1315638794421657	-0.7062469991970399	-0.1081269296750726	-0.1014875329737956	0.04617587964675195	-0.008244087474033152	-0.2236358918206629	-0.01223909599064426	0.02325952300823608	0.1182943791959895	-36.34157864210225	-7.041593195216775	4.559673563423735	-0.6038848965404491	-525.0721479274753	-58.78513092059228	-26.20466701635022	0.2334358224727464	0.3468835502278165	-0.4343702925845399	-0.7866059134692327	0.6022499695710986	-0.1247791092913327	1.080374527521198	-1.287136492571731	-1.287136492571725	0.06544940213923066	0.1803438587135589	-0.5336278513871878	0.4754628167569109	3.050692004408662e-07	1.178641670168754e-06	-1.22845361187812e-06	1.769118943188051e-07	3.321143471667863e-07	9.113365276990341e-07	2.655562214300826e-07
1.51	-0.2150397170575398	0.05348514998364629	0.7983392346192524	0.7970966081697791	-0.4417406374563525	-0.2360283581874704	-0.2054556509607579	0.7585837664572496	0.7585837664571462	-0.1486279356969955	-0.1427586644297949	0.2297673224064907	0.03312608673727631	0.2933768408014739	0.1124899297043046	0.4016437173883933	-1.685034091040865	0.2574026261611665	-0.6926541279172989	0.3514487697169869	-1.956131966042198	-1.956131966042158	-0.07954132570693434	0.1330875539839157	-0.7113580193025218	-0.1035675787278917	-0.09801257977811627	0.0446945042729226	-0.007955453198794675	-0.2205251813265087	-0.01014724055378432	0.02279660783505894	0.1152503575646061	-35.55228746604781	-6.997246801026686	4.573732858631268	-0.7975188483942848	-522.4146924948568	-58.86337570829231	-27.07509517170428	0.2231623170467264	0.340246057236145	-0.4829689296844412	-0.676404101719684	0.5668664849571988	-0.0761828524278424	1.04654311457964	-1.140325285629469	-1.140325285620396	0.01599018851897821	0.1356887853614551	-0.4845801849281658	0.4493850733237245	3.127608308875432e-07	1.275194625242875e-06	-1.211131532014287e-06	1.941754467530523e-07	3.458722843655073e-07	9.626771282416862e-07	2.70708193837323e-07
1.52	-0.2120953832308469	0.05462691190997813	0.8023306936541449	0.7802152765071018	-0.4391380618466207	-0.2429576551874158	-0.2018889716243623	0.7389682804100607	0.738968280410081	-0.1494215398951067	-0.1414206263172501	0.2226307320835188	0.03211374098308623	0.2954517119924852	0.1158491021964269	0.3965655178345807	-1.690998978687114	0.2630929335909346	-0.6931142389784838	0.3618521288875224	-1.966699951220795	-1.966699951220692	-0.07917146433370181	0.1345036098639222	-0.7158586831999775	-0.09887967419571493	-0.09453762658322341	0.04321312889870948	-0.007666818917779501	-0.2174144708330292	-0.008055385117080257	0.02233369266119038	0.1122063359326926	-34.76479267723291	-6.954878894340426	4.590727586228375	-1.022038713181045	-519.8033792984729	-58.98228973426313	-27.94691973444539	0.1875965430686226	0.3311844165606797	-0.5328916639503098	-0.5066476550442616	0.5791374011235695	-0.01348991265478662	1.038412123110944	-0.9692232843705477	-0.9692232843705127	0.07627230837539778	0.1588201263649915	-0.4115566097821673	0.5011735337559871	3.200331927178108e-07	1.385497906379848e-06	-1.186871872728921e-06	2.133890095134122e-07	3.619294752676819e-07	1.015516706189904e-06	2.759706373762115e-07
1.53	-0.2091313433366182	0.05580182944399247	0.8062689772544344	0.7632811336963131	-0.4364792758430385	-0.249888994383143	-0.1982196363914428	0.7192550810791662	0.7192550810791565	-0.1502112571087336	-0.1400691687794312	0.2154521684960381	0.03114877300642657	0.297318242761464	0.1191160402169284	0.3910133678188849	-1.695590173364201	0.2686360582056369	-0.6930490218831387	0.3719584049657256	-1.975661929131376	-1.975661929131304	-0.07877712325531727	0.1357770788945353	-0.7197485741273566	-0.09410074594211827	-0.09090611503771177	0.04146422211566721	-0.00740189271359414	-0.214545329389975	-0.005807451966805518	0.02183287293721433	0.1090191771471979	-33.93611378579808	-6.900592143800663	4.602773836290238	-1.214645382820451	-517.2720728862344	-59.1309937316646	-28.82080163677927	0.1804714997990037	0.3217430494856215	-0.5779737643443204	-0.3994466186074791	0.5376740740318268	0.03248369836644689	0.9882584412430037	-0.8180440166439293	-0.8180440166491194	0.0204262723076728	0.1097744471903713	-0.3618218610254879	0.4681101111320713	3.268600816431433e-07	1.510410908958599e-06	-1.155241035308176e-06	2.34674458245267e-07	3.804296232297757e-07	1.069948947631535e-06	2.813504564924763e-07
